<?xml version="1.0" encoding="utf-8"?>
<!-- Generator: Adobe Illustrator 27.5.0, SVG Export Plug-In . SVG Version: 6.00 Build 0)  -->
<svg version="1.1" xmlns="http://www.w3.org/2000/svg" xmlns:xlink="http://www.w3.org/1999/xlink" x="0px" y="0px"
	 viewBox="0 0 3710 3710" style="enable-background:new 0 0 3710 3710;" xml:space="preserve">
<g id="Background">
	<g>
		<g>
			<rect style="fill:#FFFFFF;" width="3710" height="3710"/>
		</g>
	</g>
</g>
<g id="Illustration">
	<g id="Event_management">
		<path style="fill:#F4F7FA;" d="M2900.207,2940.668c-74.083,76.363-140.371,121.251-191.123,155.139
			c-494.974,330.499-1060.783,235.241-1235.718,202.682c-282.235-52.53-520.48-89.587-725.175-274.521
			C283.062,2603.742,305.685,1727.12,661.101,1184.09c42.142-64.388,397.019-590.426,964.053-664.55
			c13.869-1.813,24.217-2.845,33.28-3.805c87.719-9.288,631.295-58.305,1074.528,313.035
			c63.447,53.155,165.551,149.034,260.234,295.265C3339.401,1658.723,3340.498,2486.834,2900.207,2940.668z"/>
		<g>
			<g>
				<defs>
					<path id="SVGID_1_" d="M1699.159,2856.959l248.564,169.785c0,0,133.886-95.546,134.439-227.14
						c1.128-268.491,236.202-248.764,335.896-255.231c150.348-9.752,278.585-83.917,167.331-230.333
						c-111.254-146.416,186.003-270.788,431.083-251.544c239.828,18.832,411.692-396.624-103.644-485.043
						c-307.757-52.804-440.823,220.842-540.873,343.055c-100.05,122.214-300.635,0.967-342.919,204.867
						c-36.118,174.168,3.688,346.344-141.895,383.604C1741.56,2546.238,1661.699,2644.96,1699.159,2856.959z"/>
				</defs>
				<clipPath id="SVGID_00000111905220418909046510000010172393885666809784_">
					<use xlink:href="#SVGID_1_"  style="overflow:visible;"/>
				</clipPath>
				
					<linearGradient id="SVGID_00000021817131309129519450000004057240257779867045_" gradientUnits="userSpaceOnUse" x1="6893.2402" y1="259.7591" x2="6293.9448" y2="1963.0204" gradientTransform="matrix(0.8257 0.564 -0.564 0.8257 -2418.0242 -2391.5386)">
					<stop  offset="0" style="stop-color:#FFC444"/>
					<stop  offset="0.9964" style="stop-color:#F36F56"/>
				</linearGradient>
				
					<path style="clip-path:url(#SVGID_00000111905220418909046510000010172393885666809784_);fill:url(#SVGID_00000021817131309129519450000004057240257779867045_);" d="
					M1699.159,2856.959l248.564,169.785c0,0,133.886-95.546,134.439-227.14c1.128-268.491,236.202-248.764,335.896-255.231
					c150.348-9.752,261.191-79.331,187.27-224.073c-83.638-163.768,166.065-277.048,411.145-257.804
					c239.828,18.832,411.692-396.624-103.644-485.043c-307.757-52.804-440.823,220.842-540.873,343.055
					c-100.05,122.214-300.635,0.967-342.919,204.867c-36.118,174.168,3.688,346.344-141.895,383.604
					C1741.56,2546.238,1661.699,2644.96,1699.159,2856.959z"/>
				<g style="opacity:0.5;clip-path:url(#SVGID_00000111905220418909046510000010172393885666809784_);">
					<path style="fill:#BEB8F2;" d="M1790.98,2953.512l5.808,2.58c1.597-3.597,162.852-363.158,430.188-671.403
						c246.286-283.978,635.628-581.241,1091.814-384.736l2.515-5.836c-203.072-87.476-409.999-86.072-615.033,4.169
						c-163.788,72.087-326.69,200.723-484.181,382.336C1954.163,2589.585,1792.583,2949.908,1790.98,2953.512z"/>
					<path style="fill:#BEB8F2;" d="M2622.221,1939.695l5.653,2.907c96.807-188.051,330.999-389.139,333.352-391.149l-4.123-4.835
						C2954.738,1548.638,2719.596,1750.542,2622.221,1939.695z"/>
					<path style="fill:#BEB8F2;" d="M2760.483,1883.312c251.82,10.604,380.787,176.143,382.059,177.813l5.055-3.849
						c-1.29-1.698-131.939-169.579-386.845-180.314L2760.483,1883.312z"/>
					<path style="fill:#BEB8F2;" d="M2063.18,2495.73c227.662-207.324,605.591-38.159,609.135-36.203l3.425-5.345
						c-3.296-2.249-387.155-172.315-616.838,36.851L2063.18,2495.73z"/>
					<path style="fill:#BEB8F2;" d="M2133.167,2389.791l5.871,2.441c75.466-181.417-22.184-408.416-23.18-410.689l-5.82,2.549
						C2111.023,1986.342,2207.584,2210.909,2133.167,2389.791z"/>
					<path style="fill:#BEB8F2;" d="M1823.408,2900.07c73.342-91.125,262.904-73.464,264.81-73.277l0.627-6.321
						c-7.92-0.789-194.883-18.2-270.387,75.615L1823.408,2900.07z"/>
					<path style="fill:#BEB8F2;" d="M1860.45,2814.409l5.777,2.649c38.569-84.062-17.94-245.655-36.51-298.755
						c-2.624-7.505-4.889-13.982-5.065-15.216l-6.302,0.81c0.224,1.744,1.717,6.054,5.37,16.503
						C1842.078,2572.903,1897.95,2732.676,1860.45,2814.409z"/>
				</g>
			</g>
			<g>
				
					<linearGradient id="SVGID_00000107578033884965823130000015618705274748211605_" gradientUnits="userSpaceOnUse" x1="-2034.3628" y1="777.6204" x2="-1279.843" y2="2760.1858" gradientTransform="matrix(-0.9755 0.2199 0.2199 0.9755 127.9268 129.15)">
					<stop  offset="0" style="stop-color:#FFC444"/>
					<stop  offset="0.9964" style="stop-color:#F36F56"/>
				</linearGradient>
				<path style="fill:url(#SVGID_00000107578033884965823130000015618705274748211605_);" d="M2325.348,1973.283
					c55.929,59.144,44.434,137.243,27.262,192.454c-7.518,2.157-11.293,5.315-18.371,9.161
					c-63.884,34.71-98.533,35.906-166.902,60.178c-14.717,5.224-62.574,7.422-82.186,7.065l-36.552-1.25
					c0,0-111.083-150.869-32.714-223.165c78.369-72.296-8.955-228.967-44.987-317.668c-22.126-54.469-14.797-86.467-19.714-107.786
					c-52.052-225.678-138.219-271.761-110.064-355.545c31.08-92.492,144.985-62.807,184.112-161.637
					c44.18-111.598-71.398-224.375-5.989-320.64c11.214-16.504,23.185-33.157,45.585-47.532
					c55.293-35.483,114.786-14.658,143.344-77.09c57.403-125.49,190.086-201.983,308.049-122.551
					c116.422,78.396,76.788,310.662-128.113,545.934c-126.641,183.93-116.584,225.524-72.346,321.27
					c30.983,67.065,159.418,228.369,79.506,329.621C2315.358,1805.357,2261.409,1905.671,2325.348,1973.283z"/>
				<g>
					<defs>
						<path id="SVGID_00000091722116979545409670000013468663103854041263_" d="M2325.556,2234.611l-269.463,10.793
							c0,0-118.577-155.382-40.208-227.678c78.37-72.296-8.954-228.967-44.986-317.668
							c-97.765-240.668,197.845-299.307,99.026-618.279c-26.283-84.837-107.131-238.027-50.682-327.328
							c64.312-101.74,152.202-44.333,188.93-124.623c57.404-125.49,190.087-201.983,308.048-122.551
							c116.423,78.396,76.789,310.663-128.111,545.934c-126.643,183.931-116.584,225.524-72.348,321.27
							c30.985,67.065,159.418,228.37,79.507,329.623s-133.859,201.566-69.922,269.179
							C2422.636,2076.164,2325.556,2234.611,2325.556,2234.611z"/>
					</defs>
					<clipPath id="SVGID_00000075868201160463716170000003834472836663203255_">
						<use xlink:href="#SVGID_00000091722116979545409670000013468663103854041263_"  style="overflow:visible;"/>
					</clipPath>
					<g style="opacity:0.5;clip-path:url(#SVGID_00000075868201160463716170000003834472836663203255_);">
						<path style="fill:#FCFDFE;" d="M2204.498,2227.462l-5.279,0.844c-4.932-29.103-9.516-58.515-13.628-87.419
							c-30.425-214.017-38.163-423.237-22.995-621.854c12.854-168.294,42.292-331.347,87.499-484.628
							c36.355-123.268,83.06-240.917,138.817-349.676c39.198-76.455,82.428-147.763,128.497-211.938
							c8.026-11.185,16.902-22.217,25.486-32.886c11.437-14.214,23.264-28.913,33.168-44.088l4.559,2.519
							c-10.04,15.384-21.946,30.182-33.459,44.494c-8.542,10.616-17.374,21.593-25.319,32.664
							c-45.923,63.973-89.026,135.067-128.112,211.307c-55.62,108.489-102.211,225.858-138.483,348.843
							c-45.113,152.966-74.493,315.694-87.321,483.663c-15.143,198.282-7.416,407.168,22.964,620.854
							C2194.994,2169.027,2199.572,2198.397,2204.498,2227.462z"/>
						<path style="fill:#FCFDFE;" d="M2208.531,1224.094l-5.278-0.707c36.358-210.573-151.724-527.93-153.629-531.109l4.682-2.46
							C2056.22,693.014,2245.18,1011.835,2208.531,1224.094z"/>
						<path style="fill:#FCFDFE;" d="M2162.364,1820.606l-5.339-0.132c6.7-145.523,242.882-322.724,245.267-324.497l3.304,3.85
							C2403.229,1501.586,2168.958,1677.357,2162.364,1820.606z"/>
						<path style="fill:#FCFDFE;" d="M2166.253,1903.368l-5.296,0.743c-13.798-93.949-86.855-214.442-205.713-339.277
							c-5.977-6.278-5.977-6.278-6.127-7.206l5.287-0.805l-2.644,0.402l2.295-1.284c0.345,0.461,2.602,2.831,5.219,5.578
							C2078.811,1687.068,2152.318,1808.47,2166.253,1903.368z"/>
						<path style="fill:#FCFDFE;" d="M2196.31,2174.222l-5.278-0.688c17.437-103.651,162.413-183.337,163.873-184.129l2.644,4.269
							C2356.108,1994.455,2213.348,2072.944,2196.31,2174.222z"/>
						<path style="fill:#FCFDFE;" d="M2196.847,2230.011c-43.84-73.31-112.008-137.01-208.4-194.738l2.95-4.179
							c97.131,58.173,165.866,122.437,210.133,196.461L2196.847,2230.011z"/>
						<path style="fill:#FCFDFE;" d="M2362.017,751.337l-5.219-0.981c27.232-116.133,26.914-243.571,26.81-285.447
							c-0.025-10.137-0.022-13.705,0.212-14.951l5.263,0.777c-0.165,0.953-0.15,6.748-0.131,14.085
							C2389.057,506.83,2389.375,634.674,2362.017,751.337z"/>
						<path style="fill:#FCFDFE;" d="M2287.727,934.525l-4.653-2.369c58.867-97.604,289.844-159.87,299.647-162.474l1.394,4.765
							C2581.738,775.08,2345.496,838.745,2287.727,934.525z"/>
					</g>
				</g>
			</g>
			<g>
				
					<linearGradient id="SVGID_00000133513582576803516680000015088403491565103802_" gradientUnits="userSpaceOnUse" x1="3360.3445" y1="626.4546" x2="4376.103" y2="2298.655" gradientTransform="matrix(-0.9932 0.1164 0.1164 0.9932 6047.0449 -181.409)">
					<stop  offset="0" style="stop-color:#FF9085"/>
					<stop  offset="1" style="stop-color:#FB6FBB"/>
				</linearGradient>
				<path style="fill:url(#SVGID_00000133513582576803516680000015088403491565103802_);" d="M2325.421,2753.044
					c-18.487-0.154-8.144-96.692-75.368-210.752c-16.795-28.496-97.617-190.272-233.126-179.092
					c-26.304,2.17-52.61,4.338-78.914,6.508c-29.503-56.176-46.901-114.587,29.913-146.531
					c119.29-49.607,95.023-255.628,51.402-324.375c-53.988-85.088-175.39-285.649,7.75-365.078
					c152.462-66.126,265.17-79.394,250.712-273.564c-14.457-194.172,81.15-327.665,268.032-338.079
					c196.666-10.959,324.134-274.849,494.81-211.767c297.392,109.921,101.473,564.712-220.854,727.819
					c-322.324,163.107-112.797,255.317-82.734,412.066c1.966,14.709,3.88,37.665,0.996,65.188
					c-17.76,169.45-186.681,218.271-293.911,367.984C2297.889,2487.546,2356.567,2753.304,2325.421,2753.044z"/>
				<g>
					<defs>
						<path id="SVGID_00000176745202259328209530000000425297792873126029_" d="M2384.072,2367.257l-425.448,47.029
							c-31.839-54.088-76.5-155.426,9.302-191.107c119.291-49.609,95.024-255.628,51.403-324.376
							c-53.989-85.088-175.39-285.649,7.75-365.079c152.462-66.125,265.168-79.392,250.711-273.563
							c-14.457-194.171,81.151-327.664,268.033-338.078c196.665-10.959,324.133-274.85,494.809-211.766
							c297.393,109.92,101.473,564.709-220.852,727.817c-322.325,163.107-112.798,255.317-82.735,412.066
							c41.043,213.996-273.773,204.406-344.093,298.682C2337.824,2222.786,2361.827,2312.955,2384.072,2367.257z"/>
					</defs>
					<clipPath id="SVGID_00000141429291291835296880000011878863982350842295_">
						<use xlink:href="#SVGID_00000176745202259328209530000000425297792873126029_"  style="overflow:visible;"/>
					</clipPath>
					<g style="opacity:0.5;clip-path:url(#SVGID_00000141429291291835296880000011878863982350842295_);">
						<path style="fill:#FCFDFE;" d="M2175.907,2326.254l-9.255-0.678c52.719-638.399,433.537-1249.529,993.845-1594.898
							l5.075,7.333C2607.626,1081.925,2228.407,1690.507,2175.907,2326.254z"/>
						<path style="fill:#FCFDFE;" d="M2236.248,1980.52l-9.215,1.059c-32.195-249.809-283.938-418.525-286.478-420.199l5.319-7.179
							C1948.447,1555.895,2203.543,1726.773,2236.248,1980.52z"/>
						<path style="fill:#FCFDFE;" d="M2188.999,2209.065l-8.641-3.198c98.718-237.517,582.337-325.026,587.211-325.88l1.699,8.611
							C2764.447,1889.444,2285.84,1976.064,2188.999,2209.065z"/>
						<path style="fill:#FCFDFE;" d="M2493.762,1401.839l-8.903-2.487c60.981-194.041-103.068-463.034-104.731-465.729l8.016-4.414
							C2389.83,931.937,2555.871,1204.213,2493.762,1401.839z"/>
						<path style="fill:#FCFDFE;" d="M2749.874,1074.759l-5.783-6.854c191.249-143.592,519.927-114.105,523.23-113.787l-0.933,8.715
							C3263.127,962.516,2938.141,933.402,2749.874,1074.759z"/>
					</g>
				</g>
			</g>
		</g>
		<g>
			
				<linearGradient id="SVGID_00000098212255281475741530000014161868966484666008_" gradientUnits="userSpaceOnUse" x1="990.7576" y1="2062.2944" x2="2614.3157" y2="2062.2944">
				<stop  offset="0" style="stop-color:#AA80F9"/>
				<stop  offset="0.9964" style="stop-color:#6165D7"/>
			</linearGradient>
			<polygon style="fill:url(#SVGID_00000098212255281475741530000014161868966484666008_);" points="2614.316,3089.129 
				990.758,3205.965 990.758,918.624 2614.316,980.507 			"/>
			
				<linearGradient id="SVGID_00000057839210210270031070000012924693682479390338_" gradientUnits="userSpaceOnUse" x1="2642.7363" y1="1727.9037" x2="1482.6068" y2="2057.1299">
				<stop  offset="0" style="stop-color:#FFFFFF"/>
				<stop  offset="0.9964" style="stop-color:#F4F7FA"/>
			</linearGradient>
			<polygon style="fill:url(#SVGID_00000057839210210270031070000012924693682479390338_);" points="2739.37,3010.696 
				1137.827,3119.999 1137.827,844.758 2739.37,915.839 			"/>
			<path style="opacity:0.2;fill:#D8DEE8;" d="M2081.189,3063.617l-932.535,73.453l-6.284-2276.02l576.042,14.7
				c-112.636,206.881-235.884,389.615,157.169,776.929C2275.046,2046.309,2435.186,2648.086,2081.189,3063.617z"/>
			
				<linearGradient id="SVGID_00000145769694517768349740000012850516309370161293_" gradientUnits="userSpaceOnUse" x1="1451.3717" y1="1365.089" x2="1677.726" y2="1365.089">
				<stop  offset="0" style="stop-color:#FF9085"/>
				<stop  offset="1" style="stop-color:#FB6FBB"/>
			</linearGradient>
			<polygon style="opacity:0.6;fill:url(#SVGID_00000145769694517768349740000012850516309370161293_);" points="1677.181,1486.002 
				1451.372,1488.427 1452.044,1241.751 1677.726,1241.781 			"/>
			
				<linearGradient id="SVGID_00000163035577574022656050000004760666582155326089_" gradientUnits="userSpaceOnUse" x1="1749.5541" y1="1301.9736" x2="2543.7009" y2="1301.9736">
				<stop  offset="0.0036" style="stop-color:#E38DDD"/>
				<stop  offset="1" style="stop-color:#9571F6"/>
			</linearGradient>
			<polygon style="opacity:0.3;fill:url(#SVGID_00000163035577574022656050000004760666582155326089_);" points="2543.66,1358.372 
				1749.554,1363.197 1749.807,1241.433 2543.701,1240.75 			"/>
			
				<linearGradient id="SVGID_00000175304729239799489160000000623315446482158726_" gradientUnits="userSpaceOnUse" x1="1450.0142" y1="1860.2563" x2="1676.626" y2="1860.2563">
				<stop  offset="0" style="stop-color:#FF9085"/>
				<stop  offset="1" style="stop-color:#FB6FBB"/>
			</linearGradient>
			<polygon style="opacity:0.6;fill:url(#SVGID_00000175304729239799489160000000623315446482158726_);" points="1676.079,1978.938 
				1450.014,1986.322 1450.688,1739.111 1676.626,1734.191 			"/>
			
				<linearGradient id="SVGID_00000117655354338339920430000002093404612313145488_" gradientUnits="userSpaceOnUse" x1="1748.5336" y1="1784.8866" x2="2543.5376" y2="1784.8866">
				<stop  offset="0.0036" style="stop-color:#E38DDD"/>
				<stop  offset="1" style="stop-color:#9571F6"/>
			</linearGradient>
			<polygon style="opacity:0.3;fill:url(#SVGID_00000117655354338339920430000002093404612313145488_);" points="2543.497,1833.038 
				1748.534,1854.601 1748.787,1732.576 2543.538,1715.172 			"/>
			
				<linearGradient id="SVGID_00000183929464675795423080000000595683583060193200_" gradientUnits="userSpaceOnUse" x1="1448.6538" y1="2356.4797" x2="1675.5236" y2="2356.4797">
				<stop  offset="0" style="stop-color:#FF9085"/>
				<stop  offset="1" style="stop-color:#FB6FBB"/>
			</linearGradient>
			<polygon style="opacity:0.6;fill:url(#SVGID_00000183929464675795423080000000595683583060193200_);" points="1674.976,2472.934 
				1448.654,2485.3 1449.329,2237.551 1675.524,2227.66 			"/>
			
				<linearGradient id="SVGID_00000167378117360411737690000015248285361378831004_" gradientUnits="userSpaceOnUse" x1="1747.5109" y1="2268.8186" x2="2543.3738" y2="2268.8186">
				<stop  offset="0.0036" style="stop-color:#E38DDD"/>
				<stop  offset="1" style="stop-color:#9571F6"/>
			</linearGradient>
			<polygon style="opacity:0.3;fill:url(#SVGID_00000167378117360411737690000015248285361378831004_);" points="2543.333,2308.688 
				1747.511,2347.059 1747.765,2224.772 2543.374,2190.578 			"/>
		</g>
		<g>
			
				<linearGradient id="SVGID_00000168804199334466254720000012086795642394556575_" gradientUnits="userSpaceOnUse" x1="2532.77" y1="3673.887" x2="-302.2459" y2="2496.6331">
				<stop  offset="0.1" style="stop-color:#311944"/>
				<stop  offset="0.267" style="stop-color:#371B47"/>
				<stop  offset="0.4803" style="stop-color:#462150"/>
				<stop  offset="0.7186" style="stop-color:#612A5F"/>
				<stop  offset="0.9736" style="stop-color:#853774"/>
				<stop  offset="1" style="stop-color:#893976"/>
			</linearGradient>
			<path style="fill:url(#SVGID_00000168804199334466254720000012086795642394556575_);" d="M1051.438,3141.531
				c23.987,12.179,54.124,0.996,67.312-24.978c13.187-25.974,4.432-56.903-19.556-69.081c-1.243-0.631-2.512-1.161-3.783-1.669
				c4.456-14.371,7.816-28.856,10.07-43.346c1.374-0.004,2.754-0.027,4.157-0.152c27.367-2.44,49.087-27.587,48.515-56.172
				c-0.573-28.583-23.223-49.778-50.59-47.338c-1.432,0.129-2.836,0.354-4.234,0.602c-2.858-14.165-6.775-28.002-11.716-41.395
				c1.258-0.737,2.511-1.498,3.734-2.354c23.414-16.404,30.9-48.781,16.721-72.315c-14.181-23.533-44.657-29.313-68.071-12.909
				c-1.2,0.841-2.328,1.749-3.444,2.67c-9.248-10.223-19.391-19.698-30.365-28.345c0.771-1.265,1.527-2.546,2.21-3.891
				c13.188-25.973,30.42-54.346,6.244-66.148c-55.924-27.301-79.924-3.93-93.11,22.043c-0.683,1.346-1.271,2.712-1.838,4.081
				c-13.457-3.757-27.091-6.354-40.801-7.788c0.086-1.444,0.152-2.891,0.122-4.356c-0.573-28.582,7.908-44.051-19.563-44.585
				c-59.904-1.165-80.116,24.837-79.543,53.419c0.03,1.494,0.155,2.954,0.303,4.405c-13.728,3.913-27.21,8.916-40.334,14.967
				c-0.623-1.275-1.27-2.542-2.012-3.772c-14.179-23.534-44.656-29.314-68.07-12.909c-23.415,16.405-30.9,48.78-16.72,72.315
				c0.726,1.205,1.521,2.332,2.33,3.446c-10.369,10.369-20.079,21.63-29.054,33.708c-1.16-0.727-2.337-1.439-3.579-2.069
				c-23.988-12.18-54.124-0.996-67.312,24.978c-13.187,25.972-4.432,56.902,19.555,69.081c1.243,0.63,2.512,1.161,3.783,1.668
				c-4.456,14.372-7.816,28.856-10.07,43.347c-1.374,0.004-2.754,0.026-4.155,0.151c-27.368,2.441-49.088,27.589-48.516,56.172
				c0.573,28.583,23.224,49.776,50.591,47.338c1.43-0.127,2.835-0.352,4.232-0.602c2.858,14.166,6.775,28.002,11.716,41.395
				c-1.258,0.737-2.511,1.498-3.734,2.355c-23.414,16.404-30.9,48.78-16.721,72.314c14.181,23.535,61.127,34.468,84.54,18.064
				c1.199-0.841-14.14-6.902-13.025-7.824c9.248,10.223,19.391,19.698,30.365,28.344c-0.771,1.265-1.527,2.548-2.21,3.892
				c-13.188,25.974-4.432,56.903,19.556,69.081c23.988,12.18,54.124,0.996,67.311-24.977c0.683-1.345,1.271-2.712,1.838-4.081
				c13.457,3.758,27.091,6.355,40.801,7.789c-0.086,1.444-0.152,2.89-0.122,4.356c0.573,28.582,23.223,49.776,50.591,47.336
				c27.367-2.44,49.088-27.589,48.515-56.171c-0.031-1.494-0.155-2.955-0.304-4.405c13.729-3.913,27.211-8.917,40.334-14.969
				c0.623,1.275,1.27,2.543,2.012,3.772c14.18,23.534,44.655,29.314,68.07,12.909c23.415-16.405,30.9-48.781,16.721-72.315
				c-0.727-1.204-1.522-2.332-2.331-3.444c10.369-10.37,20.079-21.63,29.053-33.709
				C1049.019,3140.189,1050.196,3140.9,1051.438,3141.531z M752.411,3145.326c-87.094-44.22-118.882-156.514-71.002-250.819
				c47.881-94.305,157.299-134.905,244.391-90.686c87.094,44.219,118.882,156.514,71.002,250.819
				C948.921,3148.943,839.504,3189.544,752.411,3145.326z"/>
			
				<linearGradient id="SVGID_00000031906574506689076260000010067870507576059787_" gradientUnits="userSpaceOnUse" x1="2533.6106" y1="3671.8555" x2="-301.4073" y2="2494.6006">
				<stop  offset="0.1" style="stop-color:#311944"/>
				<stop  offset="0.267" style="stop-color:#371B47"/>
				<stop  offset="0.4803" style="stop-color:#462150"/>
				<stop  offset="0.7186" style="stop-color:#612A5F"/>
				<stop  offset="0.9736" style="stop-color:#853774"/>
				<stop  offset="1" style="stop-color:#893976"/>
			</linearGradient>
			<path style="fill:url(#SVGID_00000031906574506689076260000010067870507576059787_);" d="M1109.637,3002.305
				c27.367-2.44,49.087-27.589,48.515-56.172c-0.573-28.583-23.223-49.778-50.591-47.338c-1.43,0.127-2.835,0.354-4.231,0.602
				c-2.86-14.166-6.776-28.002-11.717-41.395c1.258-0.735,2.511-1.498,3.734-2.355c23.414-16.403,52.381-56.04,35.863-77.994
				c-31.353-41.669-63.799-23.633-87.213-7.229c-1.2,0.841-2.328,1.747-3.444,2.669c-9.248-10.223-19.391-19.697-30.365-28.344
				c0.771-1.265,1.527-2.546,2.21-3.891c7.178-14.136,7.81-29.721,3.07-42.972c-22.615,39.805-44.926,79.776-66.837,119.965
				c69.481,50.913,91.602,151.248,48.171,236.788c-36.802,72.487-109.96,113.189-181.391,108.089
				c-3.186,8.263-6.315,16.572-9.728,24.756c-9.26,22.208-19.778,43.961-30.311,65.685c6.625,1.249,13.277,2.232,19.95,2.931
				c-0.087,1.445-0.153,2.891-0.124,4.356c0.573,28.583,17.927,52.868,67.526,50.238c27.438-1.455,32.153-30.489,31.58-59.072
				c-0.031-1.493-0.155-2.954-0.304-4.405c13.729-3.913,27.211-8.916,40.334-14.967c0.623,1.275,1.271,2.543,2.012,3.771
				c14.18,23.536,63.372,33.534,86.787,17.129c23.415-16.405,12.183-53-1.996-76.534c-0.727-1.205-1.522-2.332-2.331-3.446
				c10.369-10.369,20.081-21.63,29.053-33.708c1.16,0.729,2.336,1.44,3.579,2.069c23.987,12.181,54.124,0.997,67.312-24.978
				c13.187-25.972,4.432-56.901-19.556-69.08c-1.243-0.631-2.511-1.161-3.783-1.669c4.456-14.371,7.816-28.856,10.07-43.345
				C1106.855,3002.454,1108.235,3002.43,1109.637,3002.305z"/>
			
				<linearGradient id="SVGID_00000036211921637322411340000002727452999912537270_" gradientUnits="userSpaceOnUse" x1="-234.4765" y1="2289.1084" x2="1822.1146" y2="3576.8809">
				<stop  offset="0" style="stop-color:#AA80F9"/>
				<stop  offset="0.9964" style="stop-color:#6165D7"/>
			</linearGradient>
			<path style="fill:url(#SVGID_00000036211921637322411340000002727452999912537270_);" d="M1077.238,3144.466
				c23.988,12.178,54.124,0.996,67.312-24.978c13.187-25.974,4.432-56.903-19.556-69.081c-1.243-0.631-2.511-1.161-3.783-1.669
				c4.456-14.373,7.817-28.856,10.07-43.346c1.375-0.004,2.754-0.027,4.157-0.153c27.367-2.438,49.087-27.587,48.515-56.171
				c-0.572-28.583-23.223-49.778-50.59-47.338c-1.432,0.128-2.836,0.354-4.234,0.602c-2.858-14.166-6.775-28.002-11.716-41.395
				c1.258-0.737,2.511-1.498,3.735-2.355c23.413-16.402,30.9-48.78,16.72-72.314c-14.18-23.534-44.657-29.314-68.071-12.91
				c-1.2,0.842-2.329,1.748-3.444,2.67c-9.248-10.223-19.391-19.696-30.365-28.344c0.771-1.265,1.527-2.546,2.21-3.892
				c13.188-25.974,4.432-56.903-19.556-69.081c-23.986-12.179-54.123-0.996-67.311,24.978c-0.683,1.345-1.271,2.711-1.838,4.081
				c-13.456-3.758-27.091-6.355-40.801-7.788c0.086-1.444,0.151-2.892,0.123-4.356c-0.574-28.582-23.224-49.776-50.591-47.338
				c-27.369,2.44-49.089,27.589-48.516,56.172c0.031,1.493,0.155,2.954,0.304,4.405c-13.728,3.913-27.211,8.917-40.334,14.967
				c-0.623-1.275-1.27-2.542-2.011-3.772c-14.18-23.535-44.657-29.314-68.072-12.909c-23.415,16.405-30.9,48.781-16.719,72.314
				c0.726,1.207,1.521,2.333,2.33,3.446c-10.369,10.37-20.079,21.63-29.053,33.709c-1.16-0.728-2.336-1.439-3.579-2.07
				c-23.988-12.179-54.124-0.996-67.311,24.978c-13.188,25.974-4.433,56.903,19.555,69.081c1.243,0.631,2.512,1.161,3.783,1.669
				c-4.456,14.373-7.816,28.856-10.069,43.346c-1.376,0.005-2.756,0.027-4.157,0.152c-27.368,2.44-49.089,27.589-48.516,56.172
				c0.573,28.583,23.224,49.776,50.591,47.336c1.43-0.127,2.835-0.351,4.232-0.601c2.858,14.166,6.775,28.002,11.717,41.395
				c-1.259,0.737-2.512,1.498-3.736,2.355c-23.414,16.403-30.9,48.781-16.719,72.314c14.179,23.534,44.656,29.314,68.071,12.91
				c1.199-0.842,2.329-1.749,3.443-2.67c9.248,10.223,19.392,19.696,30.365,28.344c-0.771,1.265-1.527,2.546-2.21,3.892
				c-13.187,25.974-4.432,56.903,19.556,69.081c23.988,12.178,54.124,0.996,67.311-24.978c0.683-1.345,1.271-2.711,1.838-4.081
				c13.457,3.758,27.091,6.355,40.801,7.788c-0.086,1.445-0.152,2.891-0.122,4.356c0.573,28.582,23.223,49.776,50.591,47.338
				c27.367-2.44,49.089-27.589,48.515-56.171c-0.031-1.494-0.155-2.955-0.304-4.406c13.729-3.913,27.211-8.917,40.334-14.967
				c0.623,1.275,1.272,2.542,2.012,3.771c14.18,23.535,44.656,29.315,68.071,12.91c23.415-16.405,30.9-48.78,16.721-72.315
				c-0.727-1.205-1.522-2.332-2.331-3.444c10.369-10.37,20.081-21.63,29.054-33.709
				C1074.818,3143.123,1075.996,3143.834,1077.238,3144.466z M778.211,3148.259c-87.094-44.219-118.882-156.513-71.001-250.818
				c47.88-94.305,157.298-134.906,244.39-90.687c87.094,44.219,118.882,156.513,71.002,250.818
				C974.721,3151.877,865.304,3192.479,778.211,3148.259z"/>
		</g>
		<g>
			<g>
				<g>
					
						<linearGradient id="SVGID_00000157281315156077550650000002901441373245485734_" gradientUnits="userSpaceOnUse" x1="-821.5707" y1="1929.4208" x2="-43.0853" y2="2458.2029" gradientTransform="matrix(-1 0 0 1 230.2854 0)">
						<stop  offset="0" style="stop-color:#311944"/>
						<stop  offset="1" style="stop-color:#6B3976"/>
					</linearGradient>
					<path style="fill:url(#SVGID_00000157281315156077550650000002901441373245485734_);" d="M1009.086,2210.689
						c14.645-9.495,1.301-37.116,0.513-96.446c-0.967-72.704,18.343-86.252,2.833-114.776
						c-18.965-34.88-66.705-49.314-98.334-49.994c-6.976-0.15-8.606-3.959-67.049,11.176
						c-105.291,27.269-131.649-1.962-178.8,27.237c-45.554,28.212-25.606,59.109-69.843,92.194
						c-71.704,53.629-147.108-4.35-198.355,40.509c-48.473,42.431-49.59,150.536,1.396,209.531
						c57.8,66.88,162.023,46.787,231.88,33.525c14.698-2.789,88.934-18.379,166.229-75.43
						c42.759-31.562,72.118-65.265,90.797-90.099c4.384-4.933,11.224-10.911,20.255-11.873c10.84-1.158,19.549,5.474,23.746,8.38
						C956.391,2209.885,994.699,2220.015,1009.086,2210.689z"/>
					
						<linearGradient id="SVGID_00000134959378441596074840000001179441036145235645_" gradientUnits="userSpaceOnUse" x1="1067.6385" y1="2237.2913" x2="1087.7241" y2="2560.0945">
						<stop  offset="0" style="stop-color:#FF9085"/>
						<stop  offset="1" style="stop-color:#FB6FBB"/>
					</linearGradient>
					<path style="fill:url(#SVGID_00000134959378441596074840000001179441036145235645_);" d="M1185.687,2415.319
						c-1.936-5.837-2.307-10.579-1.142-14.245c-3.555-4.505-6.818-8.867-9.787-13.031c-45.658-64.049-41.637-105.85-93.955-157.406
						c-44.534-43.883-111.731-76.948-130.562-59.792c-23.538,21.446,32.364,117.823,74.432,190.351
						c41.917,72.269,63.74,108.967,106.156,136.665c25.089,16.382,50.915,26.223,74.955,32.004
						C1202.34,2491.189,1192.296,2453.546,1185.687,2415.319z"/>
					
						<linearGradient id="SVGID_00000129899743028740212700000011866857821390362518_" gradientUnits="userSpaceOnUse" x1="-1165.8586" y1="3151.4675" x2="-1061.0153" y2="3151.4675" gradientTransform="matrix(-1 0 0 1 230.2854 0)">
						<stop  offset="0" style="stop-color:#311944"/>
						<stop  offset="1" style="stop-color:#6B3976"/>
					</linearGradient>
					<path style="fill:url(#SVGID_00000129899743028740212700000011866857821390362518_);" d="M1374.653,3151.436l-52.456-31.519
						h-23.674c0,0-8.065,30.019-7.15,31.519c10.548,17.283,59.658,30.433,90.304,31.52c5.088,0.18,12.188,0.207,14.023-3.481
						C1398.808,3173.23,1384.927,3160.13,1374.653,3151.436z"/>
					
						<linearGradient id="SVGID_00000151543484167576846650000010493758615417437866_" gradientUnits="userSpaceOnUse" x1="-1116.4139" y1="3192.7856" x2="-959.9966" y2="2723.5322" gradientTransform="matrix(-1 0 0 1 230.2854 0)">
						<stop  offset="0" style="stop-color:#FFC444"/>
						<stop  offset="0.9964" style="stop-color:#F36F56"/>
					</linearGradient>
					<path style="fill:url(#SVGID_00000151543484167576846650000010493758615417437866_);" d="M1321.268,3085.521
						c-3.372,19.513,0.894,29.686,5.491,35.385c3.236,4.011,6.11,5.152,25.317,21.754c6.351,5.492,9.583,8.432,8.849,9.971
						c-0.84,1.76-6.445,0.805-18.548-2.104c-26.376-6.343-39.631-9.644-42.867-15.992c-2.93-5.748-0.34-8.34-0.51-24
						c-0.112-10.311-2.208-18.61-3.857-23.802C1303.851,3086.329,1312.559,3085.926,1321.268,3085.521z"/>
					
						<linearGradient id="SVGID_00000057863862186715046710000009514538555102589362_" gradientUnits="userSpaceOnUse" x1="-1149.1704" y1="2958.9604" x2="-1085.0514" y2="2958.9604" gradientTransform="matrix(-1 0 0 1 230.2854 0)">
						<stop  offset="0" style="stop-color:#311944"/>
						<stop  offset="1" style="stop-color:#6B3976"/>
					</linearGradient>
					<path style="fill:url(#SVGID_00000057863862186715046710000009514538555102589362_);" d="M1359.188,2930.875
						c0,0,23.7,28.279,19.843,59.28c-3.857,31-45.361-14.323-51.147-29.641c-5.788-15.317-12.548-37.14-12.548-37.14
						S1344.442,2905.267,1359.188,2930.875z"/>
					
						<linearGradient id="SVGID_00000049211401080854771830000006045904630944683954_" gradientUnits="userSpaceOnUse" x1="-1186.3319" y1="3135.0195" x2="-1081.6323" y2="2820.9199" gradientTransform="matrix(-1 0 0 1 230.2854 0)">
						<stop  offset="0" style="stop-color:#FFC444"/>
						<stop  offset="0.9964" style="stop-color:#F36F56"/>
					</linearGradient>
					<path style="fill:url(#SVGID_00000049211401080854771830000006045904630944683954_);" d="M1350.148,2886.628
						c0,0-6.43,32.946,5.833,50.333c6.108,8.66,14.346,16.006,11.923,23.056c-1.623,4.724-7.788,8.119-13.01,7.583
						c-9.997-1.027-15.539-16.354-19.448-27.164c-5.773-15.967-8.992-50.135-8.992-50.135L1350.148,2886.628z"/>
					
						<linearGradient id="SVGID_00000170973073910734093170000012494403114161853366_" gradientUnits="userSpaceOnUse" x1="-1057.3225" y1="2605.8372" x2="-979.2302" y2="3057.3096" gradientTransform="matrix(-1 0 0 1 230.2854 0)">
						<stop  offset="0" style="stop-color:#AB316D"/>
						<stop  offset="1" style="stop-color:#792D3D"/>
					</linearGradient>
					<path style="fill:url(#SVGID_00000170973073910734093170000012494403114161853366_);" d="M1331.259,2914.4
						c7.289-2.654,14.577-5.31,21.865-7.965c11.37-25.971,25.247-68.627,20.612-120.475
						c-11.921-133.336-135.242-203.992-148.941-211.554c-33.6,16.858-67.633,40.64-68.865,70.622
						c-1.547,37.636,49.724,57.53,97.92,112.563C1282.781,2790.625,1313.693,2839.846,1331.259,2914.4z"/>
					
						<linearGradient id="SVGID_00000091001266703793139370000012493454318841388949_" gradientUnits="userSpaceOnUse" x1="-947.0377" y1="3140.8979" x2="-835.9993" y2="2789.4802" gradientTransform="matrix(-1 0 0 1 230.2854 0)">
						<stop  offset="0" style="stop-color:#AB316D"/>
						<stop  offset="1" style="stop-color:#792D3D"/>
					</linearGradient>
					<path style="fill:url(#SVGID_00000091001266703793139370000012493454318841388949_);" d="M1323.402,3100.773
						c24.082-94.072,17.93-170.837,10.983-215.06c-10.501-66.84-31.857-202.799-122.631-253.497
						c-19.822-11.071-48.16-20.985-82.697-51.764c-28.842-25.703-47.174-52.736-58.235-71.781
						c-121.398-35.612-233.372-21.18-282.782,43.927c-5.709,7.523-20.002,23.841-22.767,47.903
						c-6.24,54.29,47.104,119.649,106.961,133.297c76.073,17.347,120.207-60.765,187.606-34.776
						c18.854,7.269,34.837,25.284,66.806,61.315c40.669,45.834,63.53,88.128,72.179,105.052
						c25.754,50.394,45.284,87.595,48.133,135.807c0.663,11.231,1.059,33.923,14.215,58.396
						c10.098,18.786,23.786,31.312,33.97,39.051C1304.563,3099.352,1313.983,3100.064,1323.402,3100.773z"/>
					
						<linearGradient id="SVGID_00000067958583554805447790000005401002533336009878_" gradientUnits="userSpaceOnUse" x1="-947.0278" y1="3140.9019" x2="-835.9894" y2="2789.4839" gradientTransform="matrix(-1 0 0 1 230.2854 0)">
						<stop  offset="0" style="stop-color:#AB316D"/>
						<stop  offset="1" style="stop-color:#792D3D"/>
					</linearGradient>
					<path style="opacity:0.3;fill:url(#SVGID_00000067958583554805447790000005401002533336009878_);" d="M765.273,2600.501
						c2.765-24.062,17.058-40.38,22.767-47.903c49.41-65.107,161.384-79.54,282.782-43.927
						c11.061,19.045,29.393,46.078,58.234,71.781c34.538,30.779,62.876,40.693,82.698,51.764
						c55.43,30.958,84.95,93.7,101.947,153.092c-25.218-39.099-46.804-49.494-63.509-49.679
						c-23.911-0.266-34.595,20.178-63.146,17.387c-30.517-2.982-37.493-28.215-62.23-31.114c-7.404-0.867-16.514,0.275-27.456,6.1
						c-14.602-15.289-25.485-24.339-37.52-28.979c-67.399-25.989-111.533,52.123-187.606,34.776
						C812.377,2720.15,759.033,2654.79,765.273,2600.501z"/>
					
						<linearGradient id="SVGID_00000087379158641195501090000006317888949565209267_" gradientUnits="userSpaceOnUse" x1="-790.7816" y1="2560.2708" x2="-712.8692" y2="3010.7026" gradientTransform="matrix(-1 0 0 1 230.2854 0)">
						<stop  offset="0" style="stop-color:#AB316D"/>
						<stop  offset="1" style="stop-color:#792D3D"/>
					</linearGradient>
					<path style="fill:url(#SVGID_00000087379158641195501090000006317888949565209267_);" d="M1260.503,2674.291
						c-13.74-0.73-34.899-1.152-60.423,1.369c-121.13,11.97-154.522,71.886-254.634,86.507
						c-23.682,3.459-129.125,18.859-174.794-42.097c-32.787-43.762-27.827-119.169,8.036-148.828
						c15.177-12.552,30.204-12.204,127.406-11.324c36.606,0.332,73.214,0.449,109.819,0.916
						c154.951,1.975,184.584-8.757,212.777,16.873C1241.842,2589.663,1261.074,2615.343,1260.503,2674.291z"/>
					<g>
						<g>
							
								<linearGradient id="SVGID_00000077308794254828798150000010853027604580928425_" gradientUnits="userSpaceOnUse" x1="-903.4269" y1="2280.6204" x2="-211.3164" y2="2534.0696" gradientTransform="matrix(-1 0 0 1 230.2854 0)">
								<stop  offset="0" style="stop-color:#FF9085"/>
								<stop  offset="1" style="stop-color:#FB6FBB"/>
							</linearGradient>
							<path style="fill:url(#SVGID_00000077308794254828798150000010853027604580928425_);" d="M933.385,2177.131
								c0,0-180.814-52.732-199.571,79.641c-17.978,126.875,74.122,185.099,32.217,313.61
								c-4.858,14.896,344.195-53.34,344.195-53.34c-46.594-58.129-57.422-106.085-58.534-139.429
								c-1.221-36.555,9.316-53.171,0-96.385c0,0-10.395-48.216-47.898-89.619C998.409,2185.667,991.991,2179.476,933.385,2177.131z
								"/>
						</g>
					</g>
					<g>
						
							<linearGradient id="SVGID_00000137092173514256980180000007536626123996470430_" gradientUnits="userSpaceOnUse" x1="2824.1873" y1="2039.1482" x2="2832.1438" y2="1827.2115" gradientTransform="matrix(0.984 0.1784 -0.1784 0.984 -1518.1509 -244.2395)">
							<stop  offset="0" style="stop-color:#FFC444"/>
							<stop  offset="0.9964" style="stop-color:#F36F56"/>
						</linearGradient>
						<path style="fill:url(#SVGID_00000137092173514256980180000007536626123996470430_);" d="M894.115,2097.8
							c1.657,7.739,10.088,49.264-6.902,59.949c-3.683,2.317-10.759,3.642-24.913,6.295c-9.266,1.737-17.041,2.802-22.525,3.458
							c0.792,6.963,3.138,18.297,11.174,28.607c22.527,28.901,67.695,21.422,74.136,20.248
							c22.719-4.137,45.076-11.156,50.476-15.447c8.221-6.532,14.685-11.434,18.508-16.413c-8.793-4.249-26.543-15.454-38.455-19.12
							c-8.903-2.739-17.259-4.694-24.861-6.096c-1.249-8.021-2.5-16.043-3.75-24.065
							C916.04,2122.743,905.077,2110.272,894.115,2097.8z"/>
						
							<linearGradient id="SVGID_00000016076103754685795150000018300777147377692801_" gradientUnits="userSpaceOnUse" x1="2821.7041" y1="1852.0498" x2="2818.2983" y2="2126.4521" gradientTransform="matrix(0.984 0.1784 -0.1784 0.984 -1518.1509 -244.2395)">
							<stop  offset="0" style="stop-color:#FFC444"/>
							<stop  offset="0.9964" style="stop-color:#F36F56"/>
						</linearGradient>
						<path style="fill:url(#SVGID_00000016076103754685795150000018300777147377692801_);" d="M893.32,2118.495
							c0,0,3.07,30.431,32.652,35.794c26.487,4.802,46.425-59.203,32.87-75.759c-4.521-5.522-15.684-10.776-25.361-10.498
							c-6.805,0.197-29.793,8.951-33.001,31.953c-4.578-4.823-10.283-6.21-13.095-4.19c-3.568,2.562-1.657,10.012-1.223,11.699
							C887.662,2113.342,891.48,2116.966,893.32,2118.495z"/>
					</g>
				</g>
			</g>
			<g>
				
					<linearGradient id="SVGID_00000128451663207610043910000005585420209782437545_" gradientUnits="userSpaceOnUse" x1="5350.9497" y1="-2347.1587" x2="5558.4521" y2="-2141.3159" gradientTransform="matrix(-3.000000e-04 1.0058 -0.9942 -0.1144 -1106.2683 -3309.4854)">
					<stop  offset="0" style="stop-color:#40447E"/>
					<stop  offset="0.9964" style="stop-color:#3C3B6B"/>
				</linearGradient>
				<path style="fill:url(#SVGID_00000128451663207610043910000005585420209782437545_);" d="M1226.668,2264.531l-7.137,286.763
					c-0.211,8.485-6.08,15.602-15.442,18.729l-190.456,63.624c-15.032,5.022-30.406-6.658-29.599-22.486l13.721-269.018
					c0.423-8.287,6.137-15.237,15.196-18.48l195.074-69.82C1216.329,2250.87,1226.858,2256.906,1226.668,2264.531z"/>
				
					<linearGradient id="SVGID_00000021083774853459938220000017128212563181186970_" gradientUnits="userSpaceOnUse" x1="5373.8926" y1="-2324.3997" x2="5564.9395" y2="-2134.8809" gradientTransform="matrix(-3.000000e-04 1.0058 -0.9942 -0.1144 -1106.2683 -3309.4854)">
					<stop  offset="0" style="stop-color:#40447E"/>
					<stop  offset="0.9964" style="stop-color:#3C3B6B"/>
				</linearGradient>
				<path style="opacity:0.3;fill:url(#SVGID_00000021083774853459938220000017128212563181186970_);" d="M1204.088,2570.023
					c9.363-3.128,15.232-10.245,15.443-18.73l0.156-6.285c-11.746-2.291-22.49-6.375-31.164-13.054
					c-27.079-20.849-10.364-48.387-39.02-73.644c-31.479-27.744-68.967-9.773-98.265-34.712
					c-30.836-26.249-5.713-60.065-25.439-104.532l-12.846,4.598c-9.061,3.242-14.774,10.192-15.198,18.479l-13.866,271.855
					c-0.738,14.465,13.312,25.138,27.049,20.549L1204.088,2570.023z"/>
			</g>
			<g>
				
					<linearGradient id="SVGID_00000046317957400321042780000015574395509455623071_" gradientUnits="userSpaceOnUse" x1="-434.4171" y1="1678.6569" x2="-415.181" y2="1987.8075" gradientTransform="matrix(0.9524 -0.3051 0.3051 0.9524 612.3726 564.0681)">
					<stop  offset="0" style="stop-color:#FF9085"/>
					<stop  offset="1" style="stop-color:#FB6FBB"/>
				</linearGradient>
				<path style="fill:url(#SVGID_00000046317957400321042780000015574395509455623071_);" d="M939.563,2522.226
					c1.701-10.028,3.404-20.055,5.105-30.084c-41.167-3.042-98.3-8.259-157.604-17.182c-9.289-1.398-20.353-3.215-25.525-11.685
					c-14.55-23.828,36.492-62.975,52.962-122.667c17.706-64.173-6.835-145.026-33.64-149.451
					c-54.106-8.932-205.516,278.999-118.247,364.694C710.689,2603.059,826.61,2584.394,939.563,2522.226z"/>
			</g>
			
				<linearGradient id="SVGID_00000012474271778847399750000009841391692424591511_" gradientUnits="userSpaceOnUse" x1="-200.8561" y1="2046.2058" x2="-301.4088" y2="2140.9639" gradientTransform="matrix(0.9813 -0.1926 0.1926 0.9813 808.0061 434.301)">
				<stop  offset="0" style="stop-color:#FFC444"/>
				<stop  offset="0.9964" style="stop-color:#F36F56"/>
			</linearGradient>
			<path style="fill:url(#SVGID_00000012474271778847399750000009841391692424591511_);" d="M944.669,2492.142
				c21.967-17.842,53.945-10.252,56.012-9.729c5.887,1.486,14.62,4.477,24.133,11.016c1.135,1.047,14.668,13.699,11.72,19.183
				c-2.363,4.394-15.009,3.619-31.233-2.535c-6.227,0.34-15.403,1.331-26.016,4.448c-19.489,5.728-27.351,13.784-35.62,9.786
				c-6.055-2.926-9.497-10.951-8.821-17.553C935.569,2499.667,940.95,2495.163,944.669,2492.142z"/>
			
				<linearGradient id="SVGID_00000179606788051691449980000011429324496300600747_" gradientUnits="userSpaceOnUse" x1="3001.0874" y1="2625.1523" x2="2938.6433" y2="2683.9978" gradientTransform="matrix(-0.9813 -0.1926 -0.1926 0.9813 4658.3887 434.301)">
				<stop  offset="0" style="stop-color:#FFC444"/>
				<stop  offset="0.9964" style="stop-color:#F36F56"/>
			</linearGradient>
			<path style="fill:url(#SVGID_00000179606788051691449980000011429324496300600747_);" d="M1224.797,2423.802
				c-8.841-2.123-24.063,11.726-23.825,26.973c0.201,12.815,11.311,25.861,20.445,24.752c5.737-0.696,9.287-6.804,10.573-9.018
				C1240.834,2451.29,1235.069,2426.27,1224.797,2423.802z"/>
		</g>
		<g>
			
				<linearGradient id="SVGID_00000163038549563348014320000011030381273180326313_" gradientUnits="userSpaceOnUse" x1="-186.9069" y1="2781.5767" x2="-1005.9557" y2="3071.6558" gradientTransform="matrix(-1 0 0 1 1740.9338 0)">
				<stop  offset="0" style="stop-color:#AA80F9"/>
				<stop  offset="0.9964" style="stop-color:#6165D7"/>
			</linearGradient>
			<path style="fill:url(#SVGID_00000163038549563348014320000011030381273180326313_);" d="M2694.896,3234.038l-330.563,53.864
				c-6.916,1.126-13.943,1.418-20.928,0.868l-27.004-2.127l4.478-587.576l374.018-13.276V3234.038z"/>
			
				<linearGradient id="SVGID_00000049218172598430763580000018363669359513711030_" gradientUnits="userSpaceOnUse" x1="-281.1334" y1="3026.3167" x2="-527.5817" y2="2954.2783" gradientTransform="matrix(-1 0 0 1 1740.9338 0)">
				<stop  offset="0" style="stop-color:#AA80F9"/>
				<stop  offset="0.9964" style="stop-color:#6165D7"/>
			</linearGradient>
			<path style="fill:url(#SVGID_00000049218172598430763580000018363669359513711030_);" d="M1938.013,2720.683v511.743
				c0,18.31,14.065,33.27,32.259,34.352l356.895,21.229c14.437,0.859,26.755-11.13,26.755-26.01V2728.85
				c0-14.892-11.676-27.24-26.168-27.644l-359.467-10.018C1951.614,2690.724,1938.013,2703.959,1938.013,2720.683z"/>
			
				<linearGradient id="SVGID_00000156557663793497143910000004835453734420380591_" gradientUnits="userSpaceOnUse" x1="-538.1937" y1="2503.6172" x2="-601.3411" y2="2726.136" gradientTransform="matrix(-1 0 0 1 1740.9338 0)">
				<stop  offset="0" style="stop-color:#AA80F9"/>
				<stop  offset="0.9964" style="stop-color:#6165D7"/>
			</linearGradient>
			<polygon style="fill:url(#SVGID_00000156557663793497143910000004835453734420380591_);" points="2694.896,2685.79 
				2353.921,2701.935 1968.286,2691.188 2363.654,2678.307 			"/>
			
				<linearGradient id="SVGID_00000131328973176147757450000006176605198759366832_" gradientUnits="userSpaceOnUse" x1="1938.0132" y1="2983.499" x2="2279.3914" y2="2983.499">
				<stop  offset="0" style="stop-color:#AA80F9"/>
				<stop  offset="0.9964" style="stop-color:#6165D7"/>
			</linearGradient>
			<path style="fill:url(#SVGID_00000131328973176147757450000006176605198759366832_);" d="M1968.795,2691.203l281.523,7.845
				c16.015,0.446,29.091,13.955,29.073,30.317c-0.03,27.307-4.585,55.53-16.605,82.757
				c-40.075,90.776-129.659,94.127-148.298,177.447c-15.53,69.423,39.463,99.292,45.276,188.003
				c1.526,23.305-0.49,48.374-7.428,75.252c-3.652,14.147-16.806,23.785-31.145,22.932l-154.987-9.219
				c-15.902-0.946-28.192-14.015-28.192-30.012v-515.329C1938.013,2704.188,1951.843,2690.73,1968.795,2691.203z"/>
			
				<linearGradient id="SVGID_00000005984256134106278190000010627586197774850183_" gradientUnits="userSpaceOnUse" x1="-471.6846" y1="2736.7991" x2="-309.8387" y2="3552.134" gradientTransform="matrix(-1 0 0 1 1740.9338 0)">
				<stop  offset="0" style="stop-color:#FFC444"/>
				<stop  offset="0.3138" style="stop-color:#FBA94A"/>
				<stop  offset="0.9964" style="stop-color:#F36F56"/>
			</linearGradient>
			<polygon style="fill:url(#SVGID_00000005984256134106278190000010627586197774850183_);" points="2228.825,3282.157 
				2096.501,3274.286 2096.501,2694.761 2228.825,2698.449 			"/>
			
				<linearGradient id="SVGID_00000144336995994421235990000000053046178516712577_" gradientUnits="userSpaceOnUse" x1="-447.1473" y1="2990.4841" x2="-160.4749" y2="2948.0889" gradientTransform="matrix(-1 0 0 1 1740.9338 0)">
				<stop  offset="0" style="stop-color:#FFC444"/>
				<stop  offset="0.3138" style="stop-color:#FBA94A"/>
				<stop  offset="0.9964" style="stop-color:#F36F56"/>
			</linearGradient>
			<polygon style="fill:url(#SVGID_00000144336995994421235990000000053046178516712577_);" points="2222.865,3281.803 
				2096.501,3274.286 2096.501,2694.761 2222.865,2698.282 			"/>
			
				<linearGradient id="SVGID_00000063591325462660134560000009071602571485313196_" gradientUnits="userSpaceOnUse" x1="-639.8307" y1="2700.8196" x2="-31.5981" y2="2610.8696" gradientTransform="matrix(-1 0 0 1 1740.9338 0)">
				<stop  offset="0" style="stop-color:#FFC444"/>
				<stop  offset="0.3138" style="stop-color:#FBA94A"/>
				<stop  offset="0.9964" style="stop-color:#F36F56"/>
			</linearGradient>
			<polygon style="fill:url(#SVGID_00000063591325462660134560000009071602571485313196_);" points="2462.44,2680.539 
				2093.567,2701.512 2226.184,2701.512 2548.686,2682.487 			"/>
			<g>
				
					<linearGradient id="SVGID_00000038384085313514491820000000046952946817975225_" gradientUnits="userSpaceOnUse" x1="-331.5327" y1="2530.8262" x2="-482.2344" y2="2687.5559" gradientTransform="matrix(-1 0 0 1 1740.9338 0)">
					<stop  offset="0" style="stop-color:#FFC444"/>
					<stop  offset="0.3138" style="stop-color:#FBA94A"/>
					<stop  offset="0.9964" style="stop-color:#F36F56"/>
				</linearGradient>
				<path style="fill:url(#SVGID_00000038384085313514491820000000046952946817975225_);" d="M2282.948,2671.363
					c-8.589-52.62-14.867-91.076-49.229-126.589c-14.49-14.975-30.313-31.329-56.262-35.666
					c-29.841-4.988-67.93,6.774-78.365,31.145c-9.908,23.14,13.435,38.22,3.516,64.801c-9.967,26.714-39.014,26.145-42.196,47.722
					c-2.695,18.275,15.145,39.011,33.155,48.727c31.102,16.78,48.761-6.828,109.51-3.014c41.862,2.628,66.023,15.881,77.361,2.512
					C2285.834,2694.636,2285.305,2685.798,2282.948,2671.363z"/>
				<g style="opacity:0.3;">
					
						<linearGradient id="SVGID_00000180346237450622647850000007755390461959910537_" gradientUnits="userSpaceOnUse" x1="-307.2638" y1="2554.1614" x2="-457.9662" y2="2710.8918" gradientTransform="matrix(-1 0 0 1 1740.9338 0)">
						<stop  offset="0" style="stop-color:#FFC444"/>
						<stop  offset="0.3138" style="stop-color:#FBA94A"/>
						<stop  offset="0.9964" style="stop-color:#F36F56"/>
					</linearGradient>
					<path style="fill:url(#SVGID_00000180346237450622647850000007755390461959910537_);" d="M2116.675,2650.767
						c37.506-14.345,56.729-45.562,73.341-38.178c14.763,6.563,5.755,33.962,23.108,56.262
						c15.845,20.364,44.908,25.208,70.732,25.228c-0.651,2.607-1.711,4.908-3.418,6.921c-11.337,13.369-35.499,0.116-77.361-2.512
						c-60.748-3.813-78.408,19.794-109.51,3.014c-16.523-8.915-32.856-27.101-33.366-44.156
						C2077.728,2659.231,2097.224,2658.207,2116.675,2650.767z"/>
				</g>
			</g>
			<g>
				
					<linearGradient id="SVGID_00000106862796472851040490000002398269238886800278_" gradientUnits="userSpaceOnUse" x1="-687.6178" y1="2593.3047" x2="-287.3828" y2="2534.115" gradientTransform="matrix(-1 0 0 1 1740.9338 0)">
					<stop  offset="0" style="stop-color:#FFC444"/>
					<stop  offset="0.3138" style="stop-color:#FBA94A"/>
					<stop  offset="0.9964" style="stop-color:#F36F56"/>
				</linearGradient>
				<path style="fill:url(#SVGID_00000106862796472851040490000002398269238886800278_);" d="M2509.503,2541.258
					c-25.229-19.912-51.825,2.293-82.885-19.592c-31.46-22.166-22.319-57.731-46.718-67.816
					c-28.345-11.715-70.331,24.032-90.421,46.718c-51.031,57.623-74.997,159.924-34.661,195.912
					c15.138,13.507,58.007,7.941,143.125-3.743c97.29-13.354,111.291-22.919,120.603-35.439
					C2543.637,2623.56,2538.065,2563.8,2509.503,2541.258z"/>
				<g style="opacity:0.3;">
					
						<linearGradient id="SVGID_00000025407663285461747990000013693191338807596938_" gradientUnits="userSpaceOnUse" x1="-682.9617" y1="2624.7888" x2="-282.7274" y2="2565.5994" gradientTransform="matrix(-1 0 0 1 1740.9338 0)">
						<stop  offset="0" style="stop-color:#FFC444"/>
						<stop  offset="0.3138" style="stop-color:#FBA94A"/>
						<stop  offset="0.9964" style="stop-color:#F36F56"/>
					</linearGradient>
					<path style="fill:url(#SVGID_00000025407663285461747990000013693191338807596938_);" d="M2349.759,2584.459
						c14.021-4.423,20.409,11.623,49.229,18.084c5.289,1.186,56.113,11.804,83.388-20.094
						c10.822-12.655,15.901-29.676,15.311-47.723c3.979,1.384,7.914,3.452,11.815,6.531c28.563,22.542,34.135,82.302,9.042,116.04
						c-9.312,12.52-23.313,22.084-120.603,35.439c-85.118,11.684-127.987,17.25-143.125,3.743c-2.034-1.815-3.862-3.842-5.574-5.98
						c20.421-0.673,41.846-5.617,57.315-20.644C2336.406,2640.863,2325.924,2591.977,2349.759,2584.459z"/>
				</g>
			</g>
		</g>
		<g>
			
				<linearGradient id="SVGID_00000093136594629024856430000015105172905638058942_" gradientUnits="userSpaceOnUse" x1="-3138.4285" y1="-262.9631" x2="-2898.926" y2="-262.9631" gradientTransform="matrix(-0.8507 -0.5257 -0.5257 0.8507 471.131 139.0278)">
				<stop  offset="0" style="stop-color:#FF9085"/>
				<stop  offset="1" style="stop-color:#FB6FBB"/>
			</linearGradient>
			<path style="fill:url(#SVGID_00000093136594629024856430000015105172905638058942_);" d="M3117.115,1371.926l-67.769,144.283
				c0,0,144.955,91.752,194.119,76.426C3292.63,1577.31,3313.643,1548.479,3117.115,1371.926z"/>
			<path style="fill:#FFFFFF;" d="M2996.81,1578.483c-1.065-3.053-57.623,60.169-192.257,65.112
				c0,0,112.814,201.736,155.907,209.624C3003.552,1861.106,3070.084,1788.59,2996.81,1578.483z"/>
			
				<linearGradient id="SVGID_00000132077828993852767210000000340898660383162028_" gradientUnits="userSpaceOnUse" x1="-2716.9138" y1="706.2476" x2="-2589.7803" y2="-178.7996" gradientTransform="matrix(-0.8507 -0.5257 -0.5257 0.8507 471.131 139.0278)">
				<stop  offset="0" style="stop-color:#AA80F9"/>
				<stop  offset="0.9964" style="stop-color:#6165D7"/>
			</linearGradient>
			<path style="fill:url(#SVGID_00000132077828993852767210000000340898660383162028_);" d="M2764.981,1647.243
				c-4.513,5.574-107.549,219.493-158.164,267.514c-50.615,48.021-72.997-75.545-78.038-139.489
				c-5.041-63.944,6.954-184.526,6.954-184.526L2764.981,1647.243z"/>
			
				<linearGradient id="SVGID_00000126312826346684037450000004108839135421810329_" gradientUnits="userSpaceOnUse" x1="-1184.3077" y1="200.0134" x2="-1177.788" y2="-243.3444" gradientTransform="matrix(-0.8507 -0.5257 -0.5257 0.8507 471.131 139.0278)">
				<stop  offset="0" style="stop-color:#FFC444"/>
				<stop  offset="0.9964" style="stop-color:#F36F56"/>
			</linearGradient>
			<path style="fill:url(#SVGID_00000126312826346684037450000004108839135421810329_);" d="M1486.918,1039.444
				c0,0-156.173,132.911-216.101,130.312c-59.928-2.599-47.202-284.746-47.202-284.746L1486.918,1039.444z"/>
			
				<linearGradient id="SVGID_00000101816824380896066690000007660309815809607095_" gradientUnits="userSpaceOnUse" x1="-940.5904" y1="961.3722" x2="-813.4568" y2="76.3255" gradientTransform="matrix(-0.8507 -0.5257 -0.5257 0.8507 471.131 139.0278)">
				<stop  offset="0" style="stop-color:#FF9085"/>
				<stop  offset="1" style="stop-color:#FB6FBB"/>
			</linearGradient>
			<path style="fill:url(#SVGID_00000101816824380896066690000007660309815809607095_);" d="M1177.447,870.557
				c8.036,4.625-87.307,154.146-162.48,186.318c-75.173,32.171-123.997-260.909-123.997-260.909S1057.147,801.324,1177.447,870.557z
				"/>
			
				<linearGradient id="SVGID_00000150791669728475050380000015522724750769092786_" gradientUnits="userSpaceOnUse" x1="-743.1674" y1="540.6625" x2="-467.4814" y2="540.6625" gradientTransform="matrix(-0.8507 -0.5257 -0.5257 0.8507 471.131 139.0278)">
				<stop  offset="0" style="stop-color:#AA80F9"/>
				<stop  offset="0.9964" style="stop-color:#6165D7"/>
			</linearGradient>
			<path style="fill:url(#SVGID_00000150791669728475050380000015522724750769092786_);" d="M765.518,800.52
				c0,0,15.425,219.832-3.908,280.654c-19.333,60.822-158.816-117.399-242.05-131.129C519.56,950.045,584.8,832.491,765.518,800.52z
				"/>
			
				<linearGradient id="SVGID_00000114031926932760962830000007487112224295126686_" gradientUnits="userSpaceOnUse" x1="-630.9113" y1="1017.7987" x2="-176.1605" y2="-243.7656" gradientTransform="matrix(-0.8507 -0.5257 -0.5257 0.8507 471.131 139.0278)">
				<stop  offset="0" style="stop-color:#FFC444"/>
				<stop  offset="0.9964" style="stop-color:#F36F56"/>
			</linearGradient>
			<path style="fill:url(#SVGID_00000114031926932760962830000007487112224295126686_);" d="M431.82,1091.936l-25.401,149.096
				c0,0,117.783,23.044,154.05,24.979C596.736,1267.946,617.57,1193.953,431.82,1091.936z"/>
			<path style="fill:#B2B8C1;" d="M626.097,838.258c90.035-47.479,189.376-65.28,290.307-54.1
				c100.662,11.15,197.519,44.656,289.668,85.545c96.581,42.856,189.115,94.309,281.202,145.947
				c123.553,69.283,245.827,140.79,367.839,212.743c61.502,36.269,122.958,72.62,184.531,108.771
				c61.188,35.925,121.904,73.263,184.586,106.535c61.316,32.547,125.203,59.858,189.826,85.084
				c62.079,24.232,124.595,48.844,188.122,69.044c107.297,34.118,234.493,53.236,339.654,1.179
				c43.969-21.765,76.612-57.366,102.856-98.163c31.872-49.55,53.215-99.858,61.187-158.435c3.472-25.506,6.488-50.789,12.16-75.94
				c0.941-4.173,7.99-3.155,7.488,1.167c-6.207,53.457-4.488,108.895-22.871,160.207c-16.712,46.643-43.888,93.945-76.268,131.501
				c-69.122,80.165-181.041,100.893-282.241,92.364c-56.917-4.797-112.651-18.648-166.643-36.922
				c-64.169-21.717-127.752-46.147-190.67-71.237c-63.492-25.32-126.198-52.942-186.296-85.591
				c-62.458-33.932-123.266-71.185-184.427-107.385c-230.274-136.297-458.495-277.53-695.803-401.445
				c-90.431-47.22-183.732-90.478-282.084-118.487c-94.468-26.902-195.969-39.402-292.361-14.92
				c-109.026,27.689-208.23,93.149-267.54,189.714c-34.61,56.349-48.227,117.554-56.037,182.523
				c-3.289,27.336-6.747,54.951-4.988,82.531c1.858,29.085,30.713,126.964,24.935,149.836c-1.784,7.06-13.86,5.453-12.853-2.003
				c3.562-26.396-30.271-126.72-31.684-153.311c-1.523-28.73,1.888-57.602,4.98-86.12c3.292-30.388,7.431-60.842,15.055-90.483
				C445.519,980.342,528.854,889.54,626.097,838.258z"/>
		</g>
		<g>
			
				<linearGradient id="SVGID_00000121238206960038363550000006440783662001159555_" gradientUnits="userSpaceOnUse" x1="-782.8594" y1="2920.6504" x2="-1377.4423" y2="3131.2312" gradientTransform="matrix(-1 0 0 1 1740.9338 0)">
				<stop  offset="0" style="stop-color:#311944"/>
				<stop  offset="1" style="stop-color:#893976"/>
			</linearGradient>
			<path style="fill:url(#SVGID_00000121238206960038363550000006440783662001159555_);" d="M3080.632,3249.112l-239.97,39.102
				c-5.021,0.818-10.122,1.029-15.193,0.63l-19.604-1.544l3.25-426.547l271.516-9.638V3249.112z"/>
			
				<linearGradient id="SVGID_00000159459125441595745780000013044109354488136599_" gradientUnits="userSpaceOnUse" x1="-851.2625" y1="3098.3179" x2="-1030.1699" y2="3046.022" gradientTransform="matrix(-1 0 0 1 1740.9338 0)">
				<stop  offset="0" style="stop-color:#311944"/>
				<stop  offset="1" style="stop-color:#893976"/>
			</linearGradient>
			<path style="fill:url(#SVGID_00000159459125441595745780000013044109354488136599_);" d="M2531.178,2876.445v371.496
				c0,13.292,10.211,24.152,23.418,24.938l259.085,15.411c10.48,0.624,19.422-8.08,19.422-18.882v-387.034
				c0-10.811-8.476-19.775-18.997-20.068l-260.952-7.272C2541.051,2854.696,2531.178,2864.304,2531.178,2876.445z"/>
			
				<linearGradient id="SVGID_00000031176463934652453200000004093592482635050383_" gradientUnits="userSpaceOnUse" x1="-1037.8737" y1="2718.8677" x2="-1083.7151" y2="2880.4036" gradientTransform="matrix(-1 0 0 1 1740.9338 0)">
				<stop  offset="0" style="stop-color:#311944"/>
				<stop  offset="1" style="stop-color:#893976"/>
			</linearGradient>
			<polygon style="fill:url(#SVGID_00000031176463934652453200000004093592482635050383_);" points="3080.632,2851.115 
				2833.104,2862.835 2553.154,2855.033 2840.169,2845.683 			"/>
			
				<linearGradient id="SVGID_00000039093686162726479280000002934682051455989941_" gradientUnits="userSpaceOnUse" x1="-806.6435" y1="2885.2542" x2="-1098.5947" y2="3378.3274" gradientTransform="matrix(-1 0 0 1 1740.9338 0)">
				<stop  offset="0" style="stop-color:#311944"/>
				<stop  offset="1" style="stop-color:#893976"/>
			</linearGradient>
			<path style="fill:url(#SVGID_00000039093686162726479280000002934682051455989941_);" d="M2553.523,2855.044l204.37,5.695
				c11.626,0.324,21.119,10.13,21.105,22.008c-0.021,19.823-3.328,40.312-12.054,60.077
				c-29.092,65.898-94.125,68.331-107.656,128.817c-11.274,50.397,28.648,72.08,32.868,136.48
				c1.108,16.918-0.356,35.117-5.392,54.628c-2.651,10.27-12.2,17.266-22.609,16.647l-112.512-6.692
				c-11.544-0.687-20.466-10.174-20.466-21.787v-374.099C2531.178,2864.471,2541.217,2854.701,2553.523,2855.044z"/>
			
				<linearGradient id="SVGID_00000123412068003616858140000014107813300361017770_" gradientUnits="userSpaceOnUse" x1="-989.5917" y1="2888.1445" x2="-872.1008" y2="3480.0313" gradientTransform="matrix(-1 0 0 1 1740.9338 0)">
				<stop  offset="0" style="stop-color:#FFC444"/>
				<stop  offset="0.3138" style="stop-color:#FBA94A"/>
				<stop  offset="0.9964" style="stop-color:#F36F56"/>
			</linearGradient>
			<polygon style="fill:url(#SVGID_00000123412068003616858140000014107813300361017770_);" points="2742.291,3284.044 
				2646.231,3278.33 2646.231,2857.627 2742.291,2860.304 			"/>
			
				<linearGradient id="SVGID_00000082338296097869135580000016031921113118439843_" gradientUnits="userSpaceOnUse" x1="-971.7791" y1="3072.3054" x2="-763.6712" y2="3041.5288" gradientTransform="matrix(-1 0 0 1 1740.9338 0)">
				<stop  offset="0" style="stop-color:#FFC444"/>
				<stop  offset="0.3138" style="stop-color:#FBA94A"/>
				<stop  offset="0.9964" style="stop-color:#F36F56"/>
			</linearGradient>
			<polygon style="fill:url(#SVGID_00000082338296097869135580000016031921113118439843_);" points="2737.964,3283.786 
				2646.231,3278.33 2646.231,2857.627 2737.964,2860.184 			"/>
			
				<linearGradient id="SVGID_00000082364313289960395230000004533775616961414532_" gradientUnits="userSpaceOnUse" x1="-1111.6563" y1="2862.0254" x2="-670.114" y2="2796.7268" gradientTransform="matrix(-1 0 0 1 1740.9338 0)">
				<stop  offset="0" style="stop-color:#FFC444"/>
				<stop  offset="0.3138" style="stop-color:#FBA94A"/>
				<stop  offset="0.9964" style="stop-color:#F36F56"/>
			</linearGradient>
			<polygon style="fill:url(#SVGID_00000082364313289960395230000004533775616961414532_);" points="2911.882,2847.303 
				2644.101,2862.528 2740.374,2862.528 2974.491,2848.717 			"/>
			<g>
				
					<linearGradient id="SVGID_00000031184546335146651130000008392197569526307999_" gradientUnits="userSpaceOnUse" x1="-887.8495" y1="2738.6199" x2="-997.2504" y2="2852.3967" gradientTransform="matrix(-1 0 0 1 1740.9338 0)">
					<stop  offset="0" style="stop-color:#FFC444"/>
					<stop  offset="0.3138" style="stop-color:#FBA94A"/>
					<stop  offset="0.9964" style="stop-color:#F36F56"/>
				</linearGradient>
				<path style="fill:url(#SVGID_00000031184546335146651130000008392197569526307999_);" d="M2781.581,2840.642
					c-6.236-38.199-10.792-66.116-35.738-91.896c-10.519-10.871-22.006-22.743-40.843-25.892
					c-21.663-3.621-49.313,4.917-56.888,22.61c-7.193,16.799,9.753,27.746,2.553,47.042c-7.236,19.393-28.322,18.98-30.632,34.644
					c-1.956,13.267,10.994,28.32,24.068,35.373c22.578,12.181,35.398-4.956,79.498-2.188c30.389,1.907,47.929,11.529,56.159,1.823
					C2783.676,2857.537,2783.292,2851.121,2781.581,2840.642z"/>
				<g style="opacity:0.3;">
					
						<linearGradient id="SVGID_00000122002477128603833290000001290039547662149545_" gradientUnits="userSpaceOnUse" x1="-870.2317" y1="2755.5598" x2="-979.6331" y2="2869.3372" gradientTransform="matrix(-1 0 0 1 1740.9338 0)">
						<stop  offset="0" style="stop-color:#FFC444"/>
						<stop  offset="0.3138" style="stop-color:#FBA94A"/>
						<stop  offset="0.9964" style="stop-color:#F36F56"/>
					</linearGradient>
					<path style="fill:url(#SVGID_00000122002477128603833290000001290039547662149545_);" d="M2660.876,2825.69
						c27.227-10.413,41.182-33.075,53.242-27.715c10.717,4.764,4.178,24.654,16.775,40.843c11.503,14.783,32.601,18.3,51.347,18.314
						c-0.473,1.892-1.242,3.563-2.481,5.024c-8.23,9.705-25.77,0.084-56.159-1.823c-44.1-2.768-56.919,14.369-79.498,2.188
						c-11.995-6.472-23.851-19.674-24.222-32.055C2632.603,2831.834,2646.756,2831.091,2660.876,2825.69z"/>
				</g>
			</g>
			<g>
				
					<linearGradient id="SVGID_00000152957702126139994000000007166226334971374739_" gradientUnits="userSpaceOnUse" x1="-1146.347" y1="2783.9756" x2="-855.7992" y2="2741.0073" gradientTransform="matrix(-1 0 0 1 1740.9338 0)">
					<stop  offset="0" style="stop-color:#FFC444"/>
					<stop  offset="0.3138" style="stop-color:#FBA94A"/>
					<stop  offset="0.9964" style="stop-color:#F36F56"/>
				</linearGradient>
				<path style="fill:url(#SVGID_00000152957702126139994000000007166226334971374739_);" d="M2946.047,2746.193
					c-18.315-14.455-37.623,1.665-60.17-14.222c-22.838-16.092-16.202-41.91-33.914-49.23c-20.577-8.505-51.056,17.446-65.64,33.914
					c-37.046,41.831-54.443,116.095-25.162,142.221c10.99,9.805,42.109,5.765,103.901-2.717
					c70.627-9.695,80.791-16.638,87.551-25.727C2970.826,2805.939,2966.781,2762.557,2946.047,2746.193z"/>
				<g style="opacity:0.3;">
					
						<linearGradient id="SVGID_00000142871784453598222760000007525627967508939394_" gradientUnits="userSpaceOnUse" x1="-1142.9669" y1="2806.8315" x2="-852.4196" y2="2763.863" gradientTransform="matrix(-1 0 0 1 1740.9338 0)">
						<stop  offset="0" style="stop-color:#FFC444"/>
						<stop  offset="0.3138" style="stop-color:#FBA94A"/>
						<stop  offset="0.9964" style="stop-color:#F36F56"/>
					</linearGradient>
					<path style="fill:url(#SVGID_00000142871784453598222760000007525627967508939394_);" d="M2830.082,2777.554
						c10.179-3.211,14.816,8.438,35.738,13.128c3.839,0.861,40.734,8.569,60.535-14.587c7.856-9.187,11.543-21.543,11.115-34.644
						c2.888,1.004,5.745,2.506,8.578,4.741c20.735,16.364,24.78,59.747,6.564,84.239c-6.76,9.089-16.924,16.032-87.551,25.727
						c-61.791,8.482-92.911,12.523-103.901,2.717c-1.477-1.318-2.803-2.789-4.046-4.341c14.824-0.489,30.378-4.078,41.607-14.987
						C2820.388,2818.5,2812.779,2783.012,2830.082,2777.554z"/>
				</g>
			</g>
		</g>
	</g>
</g>
</svg>
